<svg xmlns="http://www.w3.org/2000/svg" version="1.1" xmlns:xlink="http://www.w3.org/1999/xlink" xmlns:svgjs="http://svgjs.dev/svgjs" width="1000" height="681" viewBox="0 0 1000 681"><g transform="matrix(1,0,0,1,-0.6060606060606233,0.3173864727991713)"><svg viewBox="0 0 396 270" data-background-color="#ffffff" preserveAspectRatio="xMidYMid meet" height="681" width="1000" xmlns="http://www.w3.org/2000/svg" xmlns:xlink="http://www.w3.org/1999/xlink"><g id="tight-bounds" transform="matrix(1,0,0,1,0.2400000000000091,11.40320342704183)"><svg viewBox="0 0 395.52 247.2" height="247.2" width="395.52"><g><svg></svg></g><g><svg viewBox="0 0 395.52 247.2" height="247.2" width="395.52"><mask id="6bbdc3ce-2598-4f28-bac9-fb84ca7948c8"><rect width="640" height="400" fill="white"></rect><g transform="matrix(1,0,0,1,80.37241285097457,37.08000000000001)"><svg viewBox="0 0 234.77517429805084 173.03999999999996" height="173.03999999999996" width="234.77517429805084"><g><svg viewBox="0 0 234.77517429805084 173.03999999999996" height="173.03999999999996" width="234.77517429805084"><g><svg viewBox="0 0 234.77517429805084 173.03999999999996" height="173.03999999999996" width="234.77517429805084"><g><svg viewBox="0 0 234.77517429805084 173.03999999999996" height="173.03999999999996" width="234.77517429805084"><g id="SvgjsG1016"><svg viewBox="0 0 234.77517429805084 173.03999999999996" height="173.03999999999996" width="234.77517429805084" id="SvgjsSvg1015"><g><svg viewBox="0 0 234.77517429805084 173.03999999999996" height="173.03999999999996" width="234.77517429805084"><g transform="matrix(1,0,0,1,0,0)"><svg width="234.77517429805084" viewBox="-2.7800000000000002 -34.4 55.32 41.04" height="173.03999999999996" data-palette-color="#202046"><path d="M14.4 0L14.4-3.91 21-3.91 21-10.03 6.96-26.49 1.22-26.49 1.22-30.4 20.02-30.4 20.02-26.49 13.75-26.49 24.02-14.21 34.11-26.49 27.44-26.49 27.44-30.4 45.8-30.4 45.8-26.49 40.19-26.49 26.49-9.99 26.49-3.91 33.33-3.91 33.33 0 14.4 0ZM28.25-5.37L28.25-9.35 41.11-24.78 47.56-24.78 47.56-29.15 48.54-29.15 48.54-23.85 41.6-23.85 29.27-9.03 29.27-5.37 28.25-5.37ZM24.49-16.55L17.48-24.78 21.78-24.78 21.78-29.15 22.75-29.15 22.75-23.85 19.53-23.85 25.1-17.31 24.49-16.55ZM29.03-23.85L29.03-24.78 31.25-24.78 30.49-23.85 29.03-23.85ZM2.81-23.85L2.81-24.78 6.96-24.78 7.76-23.85 2.81-23.85ZM15.87 1.71L35.08 1.71 35.08-2.54 36.06-2.54 36.06 2.64 15.87 2.64 15.87 1.71Z" opacity="1" transform="matrix(1,0,0,1,0,0)" fill="black" class="wordmark-text-0" id="SvgjsPath1014" stroke-width="7" stroke="black" stroke-linejoin="round"></path></svg></g></svg></g></svg></g></svg></g></svg></g></svg></g></svg></g></mask><g transform="matrix(1,0,0,1,80.37241285097457,37.08000000000001)"><svg viewBox="0 0 234.77517429805084 173.03999999999996" height="173.03999999999996" width="234.77517429805084"><g><svg viewBox="0 0 234.77517429805084 173.03999999999996" height="173.03999999999996" width="234.77517429805084"><g><svg viewBox="0 0 234.77517429805084 173.03999999999996" height="173.03999999999996" width="234.77517429805084"><g><svg viewBox="0 0 234.77517429805084 173.03999999999996" height="173.03999999999996" width="234.77517429805084"><g id="textblocktransform"><svg viewBox="0 0 234.77517429805084 173.03999999999996" height="173.03999999999996" width="234.77517429805084" id="textblock"><g><svg viewBox="0 0 234.77517429805084 173.03999999999996" height="173.03999999999996" width="234.77517429805084"><g transform="matrix(1,0,0,1,0,0)"><svg width="234.77517429805084" viewBox="-2.7800000000000002 -34.4 55.32 41.04" height="173.03999999999996" data-palette-color="#202046"><path d="M14.4 0L14.4-3.91 21-3.91 21-10.03 6.96-26.49 1.22-26.49 1.22-30.4 20.02-30.4 20.02-26.49 13.75-26.49 24.02-14.21 34.11-26.49 27.44-26.49 27.44-30.4 45.8-30.4 45.8-26.49 40.19-26.49 26.49-9.99 26.49-3.91 33.33-3.91 33.33 0 14.4 0ZM28.25-5.37L28.25-9.35 41.11-24.78 47.56-24.78 47.56-29.15 48.54-29.15 48.54-23.85 41.6-23.85 29.27-9.03 29.27-5.37 28.25-5.37ZM24.49-16.55L17.48-24.78 21.78-24.78 21.78-29.15 22.75-29.15 22.75-23.85 19.53-23.85 25.1-17.31 24.49-16.55ZM29.03-23.85L29.03-24.78 31.25-24.78 30.49-23.85 29.03-23.85ZM2.81-23.85L2.81-24.78 6.96-24.78 7.76-23.85 2.81-23.85ZM15.87 1.71L35.08 1.71 35.08-2.54 36.06-2.54 36.06 2.64 15.87 2.64 15.87 1.71Z" opacity="1" transform="matrix(1,0,0,1,0,0)" fill="#202046" class="wordmark-text-0" data-fill-palette-color="primary" id="text-0"></path></svg></g></svg></g></svg></g></svg></g></svg></g></svg></g></svg></g><g mask="url(#6bbdc3ce-2598-4f28-bac9-fb84ca7948c8)"><g transform="matrix(6.149062092486708, 0, 0, 6.149062092486708, 74.77875815026583, 1)"><svg xmlns="http://www.w3.org/2000/svg" data-name="Layer 1" viewBox="2 2.062 40 39.876000000000005" x="0" y="0" height="39.876000000000005" width="40" class="icon-none" data-fill-palette-color="accent" id="none"><path d="M33.495 20.47a41.353 41.353 0 0 0-0.55-5.522c4.465 1.259 7.725 3.246 8.755 5.522Zm-2 0H23V13.547a42.115 42.115 0 0 1 7.789 0.878A38.252 38.252 0 0 1 31.49 20.47ZM23 11.542V2.062c3.087 0.716 5.782 4.691 7.278 10.2A44.749 44.749 0 0 0 23 11.542ZM21 2.062v9.48a44.749 44.749 0 0 0-7.278 0.722C15.215 6.753 17.91 2.778 21 2.062Zm0 11.485V20.47H12.51a38.252 38.252 0 0 1 0.7-6.045A42.115 42.115 0 0 1 21 13.547ZM10.505 20.47H2.3c1.03-2.276 4.29-4.263 8.755-5.522A41.353 41.353 0 0 0 10.505 20.47Zm-0.027 2.006a41.8 41.8 0 0 0 0.577 6.576C5.913 27.6 2.377 25.186 2 22.476Zm2.006 0H21v7.977a42.115 42.115 0 0 1-7.789-0.878A38.584 38.584 0 0 1 12.484 22.476ZM21 32.458v9.48c-3.087-0.716-5.782-4.691-7.278-10.2A44.749 44.749 0 0 0 21 32.458ZM23 41.938v-9.48a44.749 44.749 0 0 0 7.278-0.722C28.785 37.247 26.09 41.222 23 41.938Zm0-11.485V22.476h8.513a38.584 38.584 0 0 1-0.724 7.1A42.115 42.115 0 0 1 23 30.453Zm10.519-7.977H42c-0.377 2.71-3.913 5.126-9.055 6.576A41.8 41.8 0 0 0 33.522 22.476Zm7.86-5.557a21.687 21.687 0 0 0-8.887-4.177 22.245 22.245 0 0 0-4.757-9.955A20.115 20.115 0 0 1 41.382 16.919ZM16.262 2.787a22.245 22.245 0 0 0-4.757 9.955 21.687 21.687 0 0 0-8.887 4.177A20.115 20.115 0 0 1 16.262 2.787ZM2.618 27.081a21.687 21.687 0 0 0 8.887 4.177 22.245 22.245 0 0 0 4.757 9.955A20.115 20.115 0 0 1 2.618 27.081Zm25.12 14.132a22.245 22.245 0 0 0 4.757-9.955 21.687 21.687 0 0 0 8.887-4.177A20.115 20.115 0 0 1 27.738 41.213Z" fill="#fe633d" data-fill-palette-color="accent"></path></svg></g></g></svg></g><defs></defs></svg><rect width="1000" height="1000" fill="none" stroke="none" visibility="hidden"></rect></g></svg></g></svg>